<svg id="visual" viewBox="0 0 900 600" width="900" height="600" xmlns="http://www.w3.org/2000/svg" xmlns:xlink="http://www.w3.org/1999/xlink" version="1.1"><path d="M0 103L82 127L164 151L245 223L327 157L409 307L491 169L573 205L655 229L736 211L818 205L900 259L900 0L818 0L736 0L655 0L573 0L491 0L409 0L327 0L245 0L164 0L82 0L0 0Z" fill="#00cc8e"></path><path d="M0 205L82 241L164 205L245 313L327 271L409 391L491 253L573 319L655 301L736 349L818 265L900 391L900 257L818 203L736 209L655 227L573 203L491 167L409 305L327 155L245 221L164 149L82 125L0 101Z" fill="#00b98a"></path><path d="M0 397L82 457L164 457L245 427L327 433L409 511L491 439L573 463L655 457L736 469L818 511L900 523L900 389L818 263L736 347L655 299L573 317L491 251L409 389L327 269L245 311L164 203L82 239L0 203Z" fill="#00a784"></path><path d="M0 499L82 523L164 517L245 505L327 487L409 553L491 493L573 547L655 505L736 541L818 553L900 559L900 521L818 509L736 467L655 455L573 461L491 437L409 509L327 431L245 425L164 455L82 455L0 395Z" fill="#00957c"></path><path d="M0 601L82 601L164 601L245 601L327 601L409 601L491 601L573 601L655 601L736 601L818 601L900 601L900 557L818 551L736 539L655 503L573 545L491 491L409 551L327 485L245 503L164 515L82 521L0 497Z" fill="#038373"></path></svg>